# xmcd
#
# Track frame offsets: 
#        150
#        43798
#        75104
#        110186
#        147629
#        197684
#        233724
#        264227
#        292330
#        321019
#
# Disc length: 4602 seconds
#
# Revision: 0
# Processed by: cddbd v1.5.2PL0 Copyright (c) Steve Scherf et al.
# Submitted via: ExactAudioCopy v0.95b4
#
DISCID=9111f80a
DTITLE=Mayall, John - Historic Live Shows - Volume 1
DYEAR=2012
DGENRE=Blues
TTITLE0=Waiting For The Right Time
TTITLE1=Took The Car
TTITLE2=Saw Mill Gulch Road
TTITLE3=Took The Car
TTITLE4=Crying
TTITLE5=Mear Me Calling You
TTITLE6=John Henry
TTITLE7=Sensitive Kind
TTITLE8=Get Me Some Dollars
TTITLE9=Black Cat Moan
EXTD=
EXTT0=
EXTT1=
EXTT2=
EXTT3=
EXTT4=
EXTT5=
EXTT6=
EXTT7=
EXTT8=
EXTT9=
PLAYORDER=
